<?xml version="1.0" encoding="utf-8"?>
<!-- Generator: Adobe Illustrator 21.1.0, SVG Export Plug-In . SVG Version: 6.00 Build 0)  -->
<svg version="1.1" id="Layer_1" xmlns="http://www.w3.org/2000/svg" xmlns:xlink="http://www.w3.org/1999/xlink" x="0px" y="0px"
	 viewBox="0 0 340.2 340.2" style="enable-background:new 0 0 340.2 340.2;" xml:space="preserve">
<style type="text/css">
	.st0{fill:none;}
	.st1{fill:#BC6C3D;}
	.st2{fill:#BC6C3D;stroke:#010202;stroke-width:0.7;stroke-miterlimit:10;}
	.st3{fill:#FFFFFF;stroke:#010202;stroke-miterlimit:10;}
	.st4{fill:none;stroke:#010202;stroke-width:1.5;stroke-miterlimit:10;}
	.st5{fill:#F4DBB3;stroke:#010202;stroke-width:2;stroke-miterlimit:10;}
	.st6{display:none;opacity:0.5;fill:#97521E;}
	.st7{fill:url(#Better_spacing);stroke:#010202;stroke-width:2;stroke-miterlimit:10;}
	.st8{fill-rule:evenodd;clip-rule:evenodd;}
</style>
<pattern  width="34" height="34" patternUnits="userSpaceOnUse" id="Better_spacing" viewBox="5.6 -39.6 34 34" style="overflow:visible;">
	<g>
		<rect x="5.6" y="-39.6" class="st0" width="34" height="34"/>
		<circle class="st1" cx="31.1" cy="-5.6" r="5.6"/>
		<circle class="st1" cx="14.1" cy="-5.6" r="5.6"/>
		<circle class="st1" cx="39.6" cy="-22.6" r="5.6"/>
		<circle class="st1" cx="22.6" cy="-22.6" r="5.6"/>
		<circle class="st1" cx="5.6" cy="-22.6" r="5.6"/>
		<circle class="st1" cx="31.1" cy="-39.6" r="5.6"/>
		<circle class="st1" cx="14.1" cy="-39.6" r="5.6"/>
	</g>
</pattern>
<circle class="st2" cx="109.3" cy="199.8" r="93.8"/>
<circle class="st3" cx="108.8" cy="199.8" r="85.3"/>
<path class="st4" d="M76.3,179.7c-1.6-1.9-4-4.5-7.3-7.3c-4.7-4-7.6-6.5-12.2-7.5c-1.4-0.3-6.2-1.3-11.3,1
	c-6.3,2.8-9.8,9.1-10.5,13.8c-1.5,9.7,7.6,21.6,23.1,26.2c3.3-3.2,7.2-7.4,10.9-12.9C72.3,188.2,74.6,183.6,76.3,179.7z"/>
<path class="st5" d="M142.9,165.9c3.6,1.7,7.2,3.5,10.8,5.4c4.3,2.2,8.4,4.4,12.5,6.5c-4,2.7-10.1,6-17.9,8.3
	c-6,1.7-11.4,2.2-15.5,2.3C136.2,180.8,139.6,173.3,142.9,165.9z"/>
<path class="st4" d="M143,165.7c-1.2-1.1-11.5-9.6-23-6.3c-1.8,0.5-7.5,2.2-10.3,7.5c-3.2,6.2-1.4,15.2,5,19.8
	c5.2,3.8,12.5,4,18.3,0.5c1.6-3.1,3.2-6.4,4.8-9.8C139.7,173.3,141.4,169.5,143,165.7z"/>
<circle class="st6" cx="81.7" cy="190.7" r="5"/>
<path id="XMLID_2_" class="st5" d="M58.4,206.3c15.3,20.5,32.1,31.1,42.2,36.3c14.1,7.3,28.8,14.9,43.6,9.5
	c10.5-3.8,35-42,34.9-57.9c0-1.3-0.1-3.7-1.4-6.4c-1.1-2.3-2.7-3.7-5-5.6c-1.5-1.3-3.8-3-6.8-4.7c-3,2.4-7.8,5.8-14.4,8.2
	c-6.8,2.5-13.2,3-21,3c-22.1,0-47.2-7.4-54-9.5c-2.5,4.3-5.2,8.7-8.3,13.3C64.9,197.4,61.6,202,58.4,206.3z"/>
<path id="XMLID_1_" class="st7" d="M58,206c15.3,20.5,32.1,31.1,42.2,36.3c14.1,7.3,28.8,14.9,43.6,9.5c10.5-3.8,35-42,34.9-57.9
	c0-1.3-0.1-3.7-1.4-6.4c-1.1-2.3-2.7-3.7-5-5.6c-1.5-1.3-3.8-3-6.8-4.7c-3,2.4-7.8,5.8-14.4,8.2c-6.8,2.5-13.2,3-21,3
	c-22.1,0-47.2-7.4-54-9.5c-2.5,4.3-5.2,8.7-8.3,13.3C64.5,197.2,61.2,201.8,58,206z"/>
<g>
	<g>
		<g>
			<g>
				<g>
					<g>
						<path class="st0" d="M171.7,185.6c-0.9,3-1.9,6-3,8.9l9.8,3.7c1.2-3.1,2.2-6.3,3.2-9.5L171.7,185.6z"/>
					</g>
					<polygon class="st8" points="174.8,194.1 173.8,193.7 173.2,195.4 174.2,195.8 					"/>
					<polygon class="st8" points="175.9,191 174.9,190.7 174.3,192.4 175.3,192.7 					"/>
					<polygon class="st8" points="176.9,187.9 175.9,187.6 175.3,189.3 176.3,189.7 					"/>
				</g>
			</g>
			<g>
				<g>
					<g>
						<path class="st0" d="M168.7,194.5c-1.1,2.9-2.3,5.8-3.6,8.7l9.6,4.3c1.4-3.1,2.6-6.1,3.8-9.3L168.7,194.5z"/>
					</g>
					<polygon class="st8" points="171.3,203.1 170.3,202.7 169.6,204.3 170.6,204.8 					"/>
					<polygon class="st8" points="172.5,200.1 171.6,199.7 170.9,201.4 171.8,201.8 					"/>
					<polygon class="st8" points="173.7,197.1 172.7,196.7 172.1,198.4 173.1,198.8 					"/>
				</g>
			</g>
			<g>
				<g>
					<g>
						<path class="st0" d="M165.1,203.1c-1.3,2.9-2.6,5.7-4.1,8.5l9.3,4.8c1.5-3,3-6,4.3-9L165.1,203.1z"/>
					</g>
					<polygon class="st8" points="167.2,211.9 166.3,211.5 165.5,213.1 166.4,213.5 					"/>
					<polygon class="st8" points="168.6,209 167.7,208.6 166.9,210.2 167.9,210.7 					"/>
					<polygon class="st8" points="170,206.1 169,205.7 168.3,207.3 169.2,207.7 					"/>
				</g>
			</g>
			<g>
				<g>
					<g>
						<path class="st0" d="M161.1,211.6c-1.4,2.8-3,5.5-4.6,8.2l9,5.4c1.7-2.9,3.3-5.8,4.9-8.7L161.1,211.6z"/>
					</g>
					<polygon class="st8" points="162.6,220.5 161.7,220 160.8,221.5 161.7,222.1 					"/>
					<polygon class="st8" points="164.2,217.7 163.3,217.2 162.4,218.7 163.3,219.3 					"/>
					<polygon class="st8" points="165.7,214.8 164.8,214.4 164,215.9 164.9,216.4 					"/>
				</g>
			</g>
			<g>
				<g>
					<g>
						<path class="st0" d="M156.5,219.8c-1.6,2.7-3.3,5.3-5,7.9l8.7,5.9c1.9-2.8,3.7-5.6,5.4-8.4L156.5,219.8z"/>
					</g>
					<path class="st8" d="M157.5,228.8l-0.9-0.6c-0.3,0.5-0.7,1-1,1.5l0.9,0.6C156.9,229.8,157.2,229.3,157.5,228.8z"/>
					<path class="st8" d="M159.3,226.1l-0.9-0.6c-0.3,0.5-0.6,1-1,1.5l0.9,0.6C158.6,227.1,158.9,226.6,159.3,226.1z"/>
					<polygon class="st8" points="161,223.3 160.1,222.8 159.1,224.3 160,224.9 					"/>
				</g>
			</g>
			<g>
				<g>
					<g>
						<path class="st0" d="M151.5,227.7c-1.8,2.6-3.6,5.1-5.5,7.6l8.3,6.4c2-2.6,4-5.3,5.9-8.1L151.5,227.7z"/>
					</g>
					<polygon class="st8" points="151.9,236.7 151.1,236.1 150,237.5 150.8,238.2 					"/>
					<polygon class="st8" points="153.8,234.1 153,233.5 151.9,235 152.8,235.6 					"/>
					<polygon class="st8" points="155.7,231.5 154.8,230.9 153.8,232.4 154.7,233 					"/>
				</g>
			</g>
			<g>
				<g>
					<g>
						<path class="st0" d="M146,235.3c-1.9,2.5-3.9,4.9-6,7.3l7.9,6.9c2.2-2.5,4.3-5.1,6.4-7.7L146,235.3z"/>
					</g>
					<polygon class="st8" points="145.9,244.3 145.1,243.7 143.9,245 144.7,245.7 					"/>
					<polygon class="st8" points="147.9,241.8 147.1,241.2 146,242.6 146.8,243.2 					"/>
					<polygon class="st8" points="150,239.3 149.1,238.7 148,240.1 148.8,240.7 					"/>
				</g>
			</g>
			<g>
				<g>
					<g>
						<path class="st0" d="M140,242.6c-2.1,2.4-4.2,4.7-6.4,6.9l7.5,7.4c2.3-2.4,4.6-4.8,6.8-7.3L140,242.6z"/>
					</g>
					<polygon class="st8" points="139.4,251.6 138.6,250.8 137.4,252.1 138.1,252.9 					"/>
					<polygon class="st8" points="141.6,249.2 140.8,248.5 139.6,249.8 140.4,250.5 					"/>
					<polygon class="st8" points="143.8,246.8 143,246.1 141.8,247.5 142.6,248.2 					"/>
				</g>
			</g>
		</g>
	</g>
</g>
<g>
	<g>
		<g>
			<g>
				<g>
					<g>
						
							<rect x="141.8" y="168" transform="matrix(0.3835 -0.9235 0.9235 0.3835 -69.3011 242.6838)" class="st0" width="10.6" height="10.5"/>
					</g>
					
						<rect x="144.6" y="175.9" transform="matrix(0.3835 -0.9235 0.9235 0.3835 -73.2 243.2807)" class="st8" width="2" height="1.1"/>
					
						<rect x="146" y="172.7" transform="matrix(0.3835 -0.9235 0.9235 0.3835 -69.339 242.5168)" class="st8" width="2" height="1"/>
					
						<rect x="147.3" y="169.4" transform="matrix(0.3835 -0.9235 0.9235 0.3835 -65.4903 241.7565)" class="st8" width="2" height="1"/>
				</g>
			</g>
			<g>
				<g>
					<g>
						
							<rect x="137.7" y="177.8" transform="matrix(0.3835 -0.9235 0.9235 0.3835 -80.9 244.9747)" class="st0" width="10.6" height="10.5"/>
					</g>
					
						<rect x="140.6" y="185.8" transform="matrix(0.3835 -0.9235 0.9235 0.3835 -84.7992 245.5706)" class="st8" width="2" height="1"/>
					
						<rect x="141.9" y="182.5" transform="matrix(0.3835 -0.9235 0.9235 0.3835 -80.9378 244.8078)" class="st8" width="2" height="1.1"/>
					
						<rect x="143.3" y="179.2" transform="matrix(0.3835 -0.9235 0.9235 0.3835 -77.0887 244.0489)" class="st8" width="2" height="1.1"/>
				</g>
			</g>
		</g>
	</g>
</g>
<g>
	<g>
		<g>
			<g>
				<g>
					<g>
						<path class="st0" d="M75.7,178.2c-1.1,2.5-2.3,5.1-3.7,7.5l9.2,5c1.5-2.7,2.8-5.5,4-8.3L75.7,178.2z"/>
					</g>
					<polygon class="st8" points="78,186.4 77.1,185.9 76.4,187.3 77.3,187.8 					"/>
					<polygon class="st8" points="79.3,183.7 78.4,183.3 77.7,184.7 78.6,185.2 					"/>
					<polygon class="st8" points="80.6,181.1 79.6,180.7 78.9,182.1 79.9,182.6 					"/>
				</g>
			</g>
			<g>
				<g>
					<g>
						<path class="st0" d="M72,185.7c-1.3,2.5-2.7,4.8-4.3,7.2l8.8,5.7c1.7-2.6,3.2-5.2,4.7-7.9L72,185.7z"/>
					</g>
					<polygon class="st8" points="73.7,194 72.8,193.5 72,194.9 72.8,195.4 					"/>
					<polygon class="st8" points="75.2,191.5 74.3,191 73.5,192.4 74.4,192.9 					"/>
					<polygon class="st8" points="76.7,189 75.7,188.5 74.9,189.9 75.9,190.4 					"/>
				</g>
			</g>
			<g>
				<g>
					<g>
						<path class="st0" d="M67.8,192.9c-1.5,2.3-3.1,4.6-4.8,6.8l8.3,6.4c1.9-2.4,3.6-4.9,5.3-7.5L67.8,192.9z"/>
					</g>
					<polygon class="st8" points="68.8,201.3 67.9,200.7 67,202 67.8,202.6 					"/>
					<polygon class="st8" points="70.5,198.9 69.6,198.3 68.7,199.7 69.5,200.3 					"/>
					<polygon class="st8" points="72.1,196.5 71.2,195.9 70.3,197.3 71.2,197.9 					"/>
				</g>
			</g>
			<g>
				<g>
					<g>
						<path class="st0" d="M63,199.7c-1.7,2.2-3.5,4.3-5.3,6.4l7.8,7c2.1-2.3,4-4.6,5.9-7.1L63,199.7z"/>
					</g>
					<polygon class="st8" points="63.3,208.2 62.5,207.5 61.4,208.7 62.2,209.4 					"/>
					<polygon class="st8" points="65.2,206 64.4,205.3 63.3,206.5 64.1,207.2 					"/>
					<polygon class="st8" points="67,203.7 66.2,203 65.2,204.3 66,205 					"/>
				</g>
			</g>
		</g>
	</g>
</g>
</svg>
